<svg xmlns="http://www.w3.org/2000/svg" viewBox="0 0 312 377"><path fill="#03fc56" d="M81.275 16.094c-3.317 1.227-4.04 5.997-3.172 20.906.432 7.425 1.294 22.05 1.916 32.5.621 10.45 1.382 26.239 1.69 35.086l.561 16.086-7.103-.916c-19.86-2.563-38.942 13.559-43.658 36.884C27.663 175.662 35.68 182 63.587 182H77.81l-.542 5.982c-.584 6.434.511 9.018 3.819 9.018 2.728 0 3.913-3.1 3.913-10.238 0-5.967.221-6.584 3.5-9.762 5.106-4.949 4.37-12.21-1.432-14.144-2.251-.75.11-25.996 2.744-29.344 2.572-3.27 2.779-5.778.652-7.905-1.345-1.345-1.519-8.052-1.404-54.103.095-37.747-.186-52.951-.997-53.928-1.539-1.855-4.207-2.437-6.788-1.482m138.118 55.995c-5.853 3.025-8.627 21.385-4.218 27.911 11.76 17.407 41.91-1.456 31.966-19.998-3.481-6.491-20.895-11.456-27.748-7.913M226 86.293c0 .849-.273 2.255-.607 3.125-.799 2.083 4.399 2.191 7.166.149 2.397-1.769 1.2-3.265-3.34-4.173-2.513-.503-3.219-.305-3.219.899m-94.714 35.158c-2.318.724-6.143 2.42-8.5 3.768-3.666 2.097-4.624 2.275-6.62 1.232-6.794-3.55-8.307.15-8.549 20.904-.13 11.176-.62 17.905-1.408 19.329-1.603 2.897-1.533 7.401.152 9.843 1.226 1.778 2.32 21.154 3.087 54.661.276 12.08 11.268 14.052 12.887 2.312.303-2.2.838-5.36 1.188-7.023.489-2.321.155-3.459-1.443-4.905-1.964-1.777-2.08-2.915-2.08-20.338v-18.457l3.708.696c4.812.903 15.753 5.878 19.928 9.063 4.505 3.436 32.299 35.005 37.291 42.357 8.876 13.069 16.81 12.412 25.088-2.079 7.599-13.303 12.739-20.164 25.785-34.419l12.908-14.104 1.132 6.144c.623 3.379 4.04 15.351 7.595 26.604 17.32 54.835 19.426 70.798 12.188 92.403-11.11 33.165-27.436 45.78-61.123 47.229-26.23 1.128-43.207-6.136-50.275-21.513-5.174-11.255-.666-33.648 8.2-40.731a525.82 525.82 0 0 0 4.382-3.535c1.765-1.455 1.109-5.93-1.069-7.291-6.363-3.977-17.866 11.586-21.41 28.967-4.177 20.481 5.149 39.961 22.197 46.364 16.126 6.057 49.814 7.821 64.017 3.353 16.093-5.064 28.932-17.323 38.394-36.657 8.52-17.413 9.56-21.513 9.417-37.128-.147-16.072-.495-17.979-11.029-60.5-7.915-31.946-8.596-35.508-9.202-48.116-.777-16.174-2.021-18.836-8.816-18.869-3.517-.017-4.518 1.008-15.131 15.485-3.226 4.4-11.373 14.075-18.104 21.5-10.988 12.121-19.9 23.785-21.643 28.328-.694 1.807-14.993-12.484-24.594-24.579-8.105-10.211-17.305-19.068-23.79-22.905l-6.086-3.6 5.271-1.709c12.217-3.962 22.633-12.595 24.769-20.529 2.088-7.754-1.025-19.768-6.839-26.398-5.201-5.93-21.145-8.51-31.873-5.157M62 134.575c-11.452 6.491-18 16.315-18 27.007v4.219l5.25 1.26c6.291 1.511 25.784 1.526 28.593.023 2.493-1.334 2.88-3.409 3.683-19.753.753-15.343.755-15.34-9.21-15.319-4.376.009-6.93.644-10.316 2.563m69 .258c-3.005 1.151-4.953 2.669-5.864 4.569-.75 1.564-2.212 3.067-3.25 3.338-1.69.442-1.886 1.536-1.886 10.515v10.022l8.87-.505c15.32-.874 27.13-8.024 27.13-16.425 0-11.685-11.15-16.82-25-11.514" fill-rule="evenodd"/></svg>